<svg id="visual" viewBox="0 0 1920 200" width="1920" height="200" xmlns="http://www.w3.org/2000/svg" xmlns:xlink="http://www.w3.org/1999/xlink" version="1.1"><path d="M0 119L45.7 106.8C91.3 94.7 182.7 70.3 274.2 61C365.7 51.7 457.3 57.3 548.8 70.8C640.3 84.3 731.7 105.7 823 103.8C914.3 102 1005.7 77 1097 60.8C1188.3 44.7 1279.7 37.3 1371.2 36.3C1462.7 35.3 1554.3 40.7 1645.8 56.3C1737.3 72 1828.7 98 1874.3 111L1920 124L1920 0L1874.3 0C1828.7 0 1737.3 0 1645.8 0C1554.3 0 1462.7 0 1371.2 0C1279.7 0 1188.3 0 1097 0C1005.7 0 914.3 0 823 0C731.7 0 640.3 0 548.8 0C457.3 0 365.7 0 274.2 0C182.7 0 91.3 0 45.7 0L0 0Z" fill="#25282a" stroke-linecap="round" stroke-linejoin="miter"></path></svg>