<svg viewBox="0 0 800 500" preserveAspectRatio="none" xmlns="http://www.w3.org/2000/svg" xmlns:xlink="http://www.w3.org/1999/xlink" width="100%" id="blobSvg">
  <g transform="translate(-349, -145)">
    <defs>
      <linearGradient id="gradient" x1="0%" y1="0%" x2="0%" y2="100%">
        <stop offset="0%" style="stop-color: rgb(255, 95, 109);"></stop>
        <stop offset="100%" style="stop-color: rgb(255, 195, 113);"></stop>
      </linearGradient>
    </defs>
    <path class="blob" d="M471,299Q471,348,443,390.5Q415,433,361,429.5Q307,426,269,428.5Q231,431,181,443.5Q131,456,94.5,423Q58,390,66.5,338.5Q75,287,53.5,245.5Q32,204,81.5,184Q131,164,128,99Q125,34,175,24.5Q225,15,263,54.5Q301,94,350,89.5Q399,85,384.5,140.5Q370,196,420.5,223Q471,250,471,299Z" fill="url(#gradient)"></path>
  </g>
</svg>