<?xml version="1.0" standalone="no"?>
<!DOCTYPE svg PUBLIC "-//W3C//DTD SVG 20010904//EN"
 "http://www.w3.org/TR/2001/REC-SVG-20010904/DTD/svg10.dtd">
<svg version="1.0" xmlns="http://www.w3.org/2000/svg"
 width="2129.000000pt" height="1411.000000pt" viewBox="0 0 2129.000000 1411.000000"
 preserveAspectRatio="xMidYMid meet">

<g transform="translate(0.000000,1411.000000) scale(0.100000,-0.100000)"
fill="#000000" stroke="none">
<path d="M6370 12587 c-28 -15 -51 -37 -64 -62 l-21 -40 -3 -2532 -2 -2533
-603 -1 c-331 -1 -1057 -5 -1614 -8 -1001 -6 -1012 -6 -1039 -27 -15 -11 -37
-33 -48 -48 l-21 -27 -5 -3157 c-3 -1736 -2 -3172 2 -3191 8 -40 33 -76 72
-105 27 -21 40 -21 829 -27 762 -7 921 -11 1307 -39 238 -17 606 -7 1050 29
91 8 309 11 585 9 l440 -3 5 -330 c3 -181 9 -338 14 -348 4 -10 17 -22 27 -28
27 -14 2042 -14 2068 0 10 6 24 25 30 42 8 23 11 434 11 1427 l0 1395 -80 -84
-79 -84 -1 228 0 227 -368 0 -368 0 -105 123 c-59 67 -118 137 -134 155 l-27
32 565 -2 c311 -2 563 0 560 5 -2 4 -325 7 -717 7 l-713 0 -7 46 c-8 61 -8
429 0 527 l7 77 1478 0 1479 0 0 -120 0 -120 1261 0 1261 0 -6 67 c-4 38 -7
91 -9 118 l-2 50 2303 3 c2019 2 2307 4 2333 17 46 24 77 65 90 119 9 39 11
947 6 4076 -3 2214 -9 4034 -13 4045 -15 43 -55 84 -97 100 -38 14 -94 16
-484 13 -337 -2 -445 -6 -455 -15 -6 -7 -19 -13 -27 -13 -9 0 -69 -66 -135
-145 l-118 -145 -2034 0 -2033 0 -82 103 c-46 56 -105 128 -132 160 l-49 57
-3022 0 -3023 0 -43 -23z m11270 -3977 l0 -3470 -4860 0 -4860 0 -2 1068 c-1
654 -4 970 -8 817 -4 -137 -8 -392 -9 -565 l-1 -315 -190 -190 -190 -190 -2
630 -3 630 -868 5 -869 5 -149 185 -150 185 641 3 640 2 0 2335 0 2335 5440 0
5440 0 0 -3470z m-10210 -3355 l0 -1665 -72 0 c-40 0 -78 -4 -84 -8 -33 -22
-34 -43 -34 -1096 l0 -1046 -1905 0 -1905 0 0 2740 0 2740 2000 0 2000 0 0
-1665z m10200 -615 c0 -40 -4 -70 -10 -70 -6 0 -10 30 -10 70 0 40 4 70 10 70
6 0 10 -30 10 -70z m68 42 c76 -49 65 -184 -17 -227 -151 -78 -279 137 -136
231 13 8 32 14 42 11 17 -4 16 -5 -2 -12 -58 -23 -94 -90 -75 -141 35 -91 142
-111 200 -36 39 49 17 137 -40 167 -17 9 -30 20 -30 25 0 11 25 3 58 -18z
m-8518 -2797 l0 -1305 -865 0 -865 0 0 1305 0 1305 865 0 865 0 0 -1305z
m-3870 -654 c0 -5 -8 -12 -18 -15 -35 -11 -64 -53 -69 -98 -4 -37 -1 -49 21
-75 15 -18 42 -37 61 -43 48 -16 102 11 130 62 18 34 19 40 5 80 -11 31 -25
48 -54 64 -23 13 -34 24 -27 29 18 11 72 -27 93 -65 34 -62 10 -141 -55 -180
-39 -24 -78 -25 -124 -3 -92 43 -98 180 -10 233 36 22 47 25 47 11z m30 -62
c0 -44 -4 -68 -10 -64 -5 3 -10 35 -10 71 0 36 4 64 10 64 6 0 10 -30 10 -71z
m2992 -786 c28 -25 24 -88 -6 -108 -74 -49 -152 47 -90 109 20 21 73 20 96 -1z"/>
<path d="M7901 7294 c0 -11 3 -14 6 -6 3 7 2 16 -1 19 -3 4 -6 -2 -5 -13z"/>
<path d="M8240 361 c-15 -28 -12 -46 8 -64 25 -23 55 -21 77 3 15 16 17 26 9
48 -13 37 -44 42 -44 7 0 -16 -4 -24 -11 -19 -6 3 -9 15 -6 25 7 25 -19 25
-33 0z"/>
<path d="M11092 2183 c575 -2 1520 -2 2100 0 579 1 108 2 -1047 2 -1155 0
-1629 -1 -1053 -2z"/>
<path d="M13410 2040 c0 -18 64 -50 102 -50 20 0 49 5 65 12 15 6 57 14 92 17
38 4 66 11 69 19 3 9 -34 12 -162 12 -106 0 -166 -4 -166 -10z"/>
</g>
</svg>
