<svg id="visual" viewBox="0 0 1920 200" width="1920" height="200" xmlns="http://www.w3.org/2000/svg" xmlns:xlink="http://www.w3.org/1999/xlink" version="1.1"><path d="M0 79L45.7 91.2C91.3 103.3 182.7 127.7 274.2 137C365.7 146.3 457.3 140.7 548.8 127.2C640.3 113.7 731.7 92.3 823 94.2C914.3 96 1005.7 121 1097 137.2C1188.3 153.3 1279.7 160.7 1371.2 161.7C1462.7 162.7 1554.3 157.3 1645.8 141.7C1737.3 126 1828.7 100 1874.3 87L1920 74L1920 201L1874.3 201C1828.7 201 1737.3 201 1645.8 201C1554.3 201 1462.7 201 1371.2 201C1279.7 201 1188.3 201 1097 201C1005.7 201 914.3 201 823 201C731.7 201 640.3 201 548.8 201C457.3 201 365.7 201 274.2 201C182.7 201 91.3 201 45.7 201L0 201Z" fill="#25282a" stroke-linecap="round" stroke-linejoin="miter"></path></svg>