<svg id="visual" viewBox="0 0 1920 200" width="1920" height="200" xmlns="http://www.w3.org/2000/svg" xmlns:xlink="http://www.w3.org/1999/xlink" version="1.1"><path d="M0 150L45.7 154.3C91.3 158.7 182.7 167.3 274.2 158C365.7 148.7 457.3 121.3 548.8 121.2C640.3 121 731.7 148 823 158.8C914.3 169.7 1005.7 164.3 1097 162C1188.3 159.7 1279.7 160.3 1371.2 148.7C1462.7 137 1554.3 113 1645.8 102.7C1737.3 92.3 1828.7 95.7 1874.3 97.3L1920 99L1920 201L1874.3 201C1828.7 201 1737.3 201 1645.8 201C1554.3 201 1462.7 201 1371.2 201C1279.7 201 1188.3 201 1097 201C1005.7 201 914.3 201 823 201C731.7 201 640.3 201 548.8 201C457.3 201 365.7 201 274.2 201C182.7 201 91.3 201 45.7 201L0 201Z" fill="#48403b" stroke-linecap="round" stroke-linejoin="miter"></path></svg>