<svg id="visual" viewBox="0 0 1920 200" width="1920" height="200" xmlns="http://www.w3.org/2000/svg" xmlns:xlink="http://www.w3.org/1999/xlink" version="1.1"><path d="M0 115L53.3 104.7C106.7 94.3 213.3 73.7 320 62.3C426.7 51 533.3 49 640 60.7C746.7 72.3 853.3 97.7 960 108.3C1066.7 119 1173.3 115 1280 116.3C1386.7 117.7 1493.3 124.3 1600 113.8C1706.7 103.3 1813.3 75.7 1866.7 61.8L1920 48L1920 0L1866.7 0C1813.3 0 1706.7 0 1600 0C1493.3 0 1386.7 0 1280 0C1173.3 0 1066.7 0 960 0C853.3 0 746.7 0 640 0C533.3 0 426.7 0 320 0C213.3 0 106.7 0 53.3 0L0 0Z" fill="#302F2E" stroke-linecap="round" stroke-linejoin="miter"></path></svg>