<svg id="visual" viewBox="0 0 1920 200" width="1920" height="200" xmlns="http://www.w3.org/2000/svg" xmlns:xlink="http://www.w3.org/1999/xlink" version="1.1"><path d="M0 83L53.3 93.3C106.7 103.7 213.3 124.3 320 135.7C426.7 147 533.3 149 640 137.3C746.7 125.7 853.3 100.3 960 89.7C1066.7 79 1173.3 83 1280 81.7C1386.7 80.3 1493.3 73.7 1600 84.2C1706.7 94.7 1813.3 122.3 1866.7 136.2L1920 150L1920 201L1866.7 201C1813.3 201 1706.7 201 1600 201C1493.3 201 1386.7 201 1280 201C1173.3 201 1066.7 201 960 201C853.3 201 746.7 201 640 201C533.3 201 426.7 201 320 201C213.3 201 106.7 201 53.3 201L0 201Z" fill="#302F2E" stroke-linecap="round" stroke-linejoin="miter"></path></svg>